<svg xmlns="http://www.w3.org/2000/svg" viewBox="0 0 122.88 114.45">
  <path d="M110.8 107.88v4.48c0 1.16-.94 2.09-2.09 2.09h-95.1a2.09 2.09 0 01-2.09-2.09V58.9c-2.34.9-4.53.92-6.35.3a7.521 7.521 0 01-3.5-2.45A7.721 7.721 0 01.06 52.8c-.26-2.31.43-4.92 2.4-7.37.1-.12.21-.24.34-.34L59.85.55c.74-.68 1.88-.75 2.7-.11l57.19 44.46c.09.07.17.14.25.23 2.65 2.85 3.31 6.01 2.67 8.68a8.035 8.035 0 01-1.82 3.48c-.87.98-1.98 1.74-3.24 2.19-2 .72-4.38.7-6.79-.44v48.84h-.01zM5.57 48.23c-1.11 1.45-1.5 2.9-1.37 4.12.08.7.33 1.32.73 1.82.39.49.92.86 1.56 1.08 1.09.37 2.5.27 4.11-.49l49.79-37.88c.77-.59 1.82-.56 2.55.01l48.37 37.6c.02.02.04.04.07.05 1.77 1.28 3.47 1.48 4.79 1.01a3.72 3.72 0 001.55-1.05c.42-.47.72-1.03.87-1.66.33-1.38-.07-3.08-1.55-4.74L61.27 4.74 5.57 48.23zM29.6 75.49h26.7c1.04 0 1.89.83 1.89 1.85v20.89c0 1.02-.85 1.85-1.89 1.85H29.6c-1.04 0-1.89-.83-1.89-1.85V77.34a1.88 1.88 0 011.89-1.85zm38.13-1.84H92.8c1.12 0 2.03.94 2.03 2.1v34.52h11.78v-53.7c0-.14.01-.27.04-.4L61.64 21.18 15.63 56.19c.05.17.07.35.07.54v53.53h50V75.74c0-1.16.91-2.09 2.03-2.09zm23.04 4.19h-21v32.38h21V77.84zM54.41 89.63H44.5v6.75h9.91v-6.75zm-13.61 0h-9.31v6.75h9.31v-6.75zm-9.31-3.7h9.31v-6.74h-9.31v6.74zm13.01 0h9.91v-6.74H44.5v6.74zm16.38-49.6c3.55 0 6.43 2.88 6.43 6.43s-2.88 6.43-6.43 6.43-6.43-2.88-6.43-6.43c0-3.56 2.88-6.43 6.43-6.43z" />
</svg>